<?xml version="1.0" standalone="no"?><!DOCTYPE svg PUBLIC "-//W3C//DTD SVG 1.1//EN" "http://www.w3.org/Graphics/SVG/1.1/DTD/svg11.dtd"><svg t="1715611255942" class="icon" viewBox="0 0 1030 1024" version="1.1" xmlns="http://www.w3.org/2000/svg" p-id="1512" xmlns:xlink="http://www.w3.org/1999/xlink" width="201.171875" height="200"><path d="M541.565396 560.061792m-221.76313 0a221.763131 221.763131 0 1 0 443.526261 0 221.763131 221.763131 0 1 0-443.526261 0Z" fill="#DE7FFF" opacity=".22" p-id="1513"></path><path d="M544.313079 536.716787m-434.603501 0a434.603502 434.603502 0 1 0 869.207003 0 434.603502 434.603502 0 1 0-869.207003 0Z" fill="#DE7FFF" opacity=".22" p-id="1514"></path><path d="M533.326468 547.703399m-320.630279 0a320.630278 320.630278 0 1 0 641.260557 0 320.630278 320.630278 0 1 0-641.260557 0Z" fill="#DE7FFF" opacity=".22" p-id="1515"></path><path d="M590.15036 588.181256m-98.500514 0a98.500515 98.500515 0 1 0 197.001029 0 98.500515 98.500515 0 1 0-197.001029 0Z" fill="#F0F0FF" p-id="1516"></path><path d="M590.15036 510.278064c42.957775 0 77.903193 34.941298 77.903193 77.899073s-34.945417 77.907312-77.903193 77.907312-77.903193-34.949537-77.903192-77.907312c0-42.949537 34.945417-77.899073 77.903192-77.899073z m-119.097837 77.899073c0 65.668383 53.429454 119.101957 119.097837 119.101957s119.097837-53.433574 119.097838-119.101957-53.429454-119.093718-119.097838-119.093718-119.097837 53.425335-119.097837 119.093718z" fill="#6E6E96" p-id="1517"></path><path d="M509.544799 139.69516m-98.500515 0a98.500515 98.500515 0 1 0 197.00103 0 98.500515 98.500515 0 1 0-197.00103 0Z" fill="#F0F0FF" p-id="1518"></path><path d="M509.544799 61.791967c42.961895 0 77.903193 34.945417 77.903193 77.903193 0 42.953656-34.941298 77.903193-77.903193 77.903192-42.953656 0-77.894954-34.945417-77.894953-77.903192C431.641607 96.737384 466.587024 61.791967 509.544799 61.791967zM390.446962 139.69516c0 65.668383 53.429454 119.097837 119.093718 119.097837 65.668383 0 119.097837-53.425335 119.097837-119.097837C628.638517 74.022657 575.213182 20.597322 509.544799 20.597322S390.446962 74.026777 390.446962 139.69516z" fill="#6E6E96" p-id="1519"></path><path d="M891.254377 884.300721m-98.504634 0a98.504634 98.504634 0 1 0 197.009268 0 98.504634 98.504634 0 1 0-197.009268 0Z" fill="#F0F0FF" p-id="1520"></path><path d="M891.254377 806.393409c42.957775 0 77.907312 34.945417 77.907312 77.907312 0 42.957775-34.949537 77.907312-77.907312 77.907312s-77.907312-34.949537-77.907312-77.907312c0-42.961895 34.949537-77.907312 77.907312-77.907312z m-119.101957 77.907312c0 65.672503 53.433574 119.101957 119.101957 119.101957 65.672503 0 119.101957-53.429454 119.101957-119.101957s-53.429454-119.101957-119.101957-119.101957c-65.672503 0-119.101957 53.429454-119.101957 119.101957z" fill="#6E6E96" p-id="1521"></path><path d="M143.365602 835.715757m-98.500514 0a98.500515 98.500515 0 1 0 197.001029 0 98.500515 98.500515 0 1 0-197.001029 0Z" fill="#F0F0FF" p-id="1522"></path><path d="M143.365602 757.812564c42.957775 0 77.903193 34.945417 77.903193 77.903193 0 42.953656-34.945417 77.899073-77.903193 77.899073s-77.903193-34.945417-77.903192-77.899073c0-42.957775 34.945417-77.903193 77.903192-77.903193zM24.267765 835.715757c0 65.668383 53.425335 119.093718 119.097837 119.093718 65.668383 0 119.097837-53.425335 119.097838-119.093718s-53.429454-119.097837-119.097838-119.097837c-65.672503 0-119.097837 53.429454-119.097837 119.097837z" fill="#6E6E96" p-id="1523"></path><path d="M139.69516 325.38826m-98.500515 0a98.500515 98.500515 0 1 0 197.00103 0 98.500515 98.500515 0 1 0-197.00103 0Z" fill="#F0F0FF" p-id="1524"></path><path d="M139.69516 247.485067c42.953656 0 77.894954 34.945417 77.894953 77.903193s-34.941298 77.903193-77.894953 77.903192S61.791967 368.346035 61.791967 325.38826c0-42.953656 34.949537-77.903193 77.903193-77.903193zM20.597322 325.38826c0 65.672503 53.425335 119.097837 119.097838 119.097837 65.664264 0 119.089598-53.425335 119.089598-119.097837 0-65.668383-53.425335-119.097837-119.089598-119.097838C74.022657 206.290422 20.597322 259.715757 20.597322 325.38826z" fill="#6E6E96" p-id="1525"></path><path d="M229.664264 288.457261l197.76313-91.814625a20.601442 20.601442 0 0 0-17.347064-37.367662L212.317199 251.093718a20.605561 20.605561 0 0 0-10.014418 27.357363 20.605561 20.605561 0 0 0 27.361483 10.00618zM489.375901 242.38517l53.021627 255.427394a20.597322 20.597322 0 1 0 40.333677-8.374871l-53.021627-255.427394a20.597322 20.597322 0 1 0-40.333677 8.374871zM233.23172 798.170958l284.065911-136.498455a20.605561 20.605561 0 0 0-17.8414-37.136973l-284.065912 136.502575a20.605561 20.605561 0 0 0-9.647786 27.489186 20.605561 20.605561 0 0 0 27.489187 9.643667zM633.91967 684.259526l174.302781 146.3069a20.605561 20.605561 0 0 0 29.025747-2.53347 20.605561 20.605561 0 0 0-2.533471-29.021627l-174.3069-146.306901a20.601442 20.601442 0 0 0-26.488157 31.555098z" fill="#6E6E96" p-id="1526"></path><path d="M509.944387 97.92379c40.749743 0 74.994851 27.851699 84.733265 65.557157 1.812564-7.019567 2.784758-14.376931 2.784758-21.960865 0-48.333677-39.188465-87.518023-87.518023-87.518022s-87.513903 39.184346-87.513903 87.518022c0 7.583934 0.963955 14.941298 2.780639 21.960865 9.742533-37.709578 43.987642-65.557158 84.733264-65.557157zM588.045314 540.420185c40.753862 0 74.994851 27.851699 84.733265 65.548919 1.812564-7.015448 2.784758-14.368692 2.784758-21.956746 0-48.329557-39.188465-87.518023-87.518023-87.518022s-87.509784 39.184346-87.509784 87.518022c0 7.588054 0.968074 14.941298 2.780639 21.956746 9.742533-37.705458 43.987642-65.548919 84.729145-65.548919zM891.176107 838.558187c40.753862 0 74.994851 27.855819 84.733265 65.557158 1.812564-7.015448 2.784758-14.376931 2.784758-21.964985 0-48.325438-39.188465-87.513903-87.518023-87.513903s-87.509784 39.188465-87.509784 87.513903c0 7.588054 0.968074 14.949537 2.780639 21.964985 9.742533-37.713697 43.987642-65.557158 84.729145-65.557158zM136.440783 280.552008c40.753862 0 74.994851 27.851699 84.733264 65.557158 1.812564-7.019567 2.784758-14.376931 2.784758-21.960865 0-48.333677-39.188465-87.518023-87.518022-87.518023s-87.509784 39.184346-87.509784 87.518023c0 7.583934 0.963955 14.941298 2.780638 21.960865 9.742533-37.705458 43.987642-65.557158 84.729146-65.557158zM147.246138 795.427394c40.753862 0 74.994851 27.851699 84.733265 65.553039 1.812564-7.015448 2.780639-14.368692 2.780638-21.956746 0-48.329557-39.184346-87.518023-87.513903-87.518023s-87.509784 39.188465-87.509784 87.518023c0 7.588054 0.963955 14.941298 2.780639 21.956746 9.742533-37.701339 43.983522-65.553038 84.729145-65.553039z" fill="#6E6E96" opacity=".15" p-id="1527"></path></svg>