<svg xmlns="http://www.w3.org/2000/svg" xmlns:xlink="http://www.w3.org/1999/xlink" width="361.6579895019531" height="346.6990051269531" viewBox="0 0 361.6579895019531 346.6990051269531" fill="none"><path id="拼合图形" fill-rule="evenodd" style="fill:#000000" opacity="1" d="M15.963 0C24.7791 0 31.926 7.14688 31.926 15.963C31.926 17.0499 31.8174 18.1114 31.6104 19.1372L330.852 115.249C333.478 109.836 339.027 106.103 345.447 106.103C354.4 106.103 361.658 113.361 361.658 122.314C361.658 131.267 354.4 138.525 345.447 138.525C340.475 138.525 336.025 136.286 333.051 132.762L67.2327 322.114C69.1697 324.684 70.318 327.881 70.318 331.347C70.318 339.826 63.4447 346.699 54.966 346.699C46.4873 346.699 39.614 339.826 39.614 331.347C39.614 324.277 44.3932 318.323 50.8971 316.54L16.4662 31.9182C16.2991 31.9234 16.1313 31.926 15.963 31.926C7.14688 31.926 0 24.7791 0 15.963C0 7.14688 7.14688 0 15.963 0ZM65.1848 319.89L331.336 130.3C329.999 127.943 329.236 125.217 329.236 122.314C329.236 120.843 329.432 119.417 329.799 118.062L30.7413 22.009C28.785 26.7857 24.5802 30.4033 19.4431 31.5455L53.858 316.034C54.2239 316.008 54.5934 315.995 54.966 315.995C58.8903 315.995 62.4707 317.467 65.1848 319.89Z"></path></svg>