<svg xmlns="http://www.w3.org/2000/svg" xmlns:xlink="http://www.w3.org/1999/xlink" width="964"
    height="950.9190368652344" viewBox="0 0 964 950.9190368652344" fill="none">
    <g opacity="1" transform="translate(0 93.46200561523438)">
        <g opacity="0.5" filter="url(#filter_1)"
            transform="translate(12.712005615234375 -79.80599975585938)">
            <path id="路径 1" style="fill:#3c3c43; opacity:1;"
                d="M376.734 0.941691L326.986 44.3677L325.342 42.4843L375.09 -0.941691L376.734 0.941691ZM326.618 44.5907L127.84 122.059L126.932 119.729L325.71 42.2613L326.618 44.5907ZM593.318 16.248L326.296 44.669L326.032 42.183L593.054 13.762L593.318 16.248ZM594.257 15.6488L529.073 124.129L526.931 122.841L592.115 14.3612L594.257 15.6488ZM734.016 152.135L836.636 169.49L836.22 171.954L733.6 154.6L734.016 152.135ZM594.063 14.114L734.685 152.477L732.931 154.259L592.309 15.896L594.063 14.114ZM733.628 154.605L527.822 124.722L528.182 122.248L733.988 152.131L733.628 154.605ZM326.625 42.2641L528.463 122.323L527.541 124.647L325.703 44.5879L326.625 42.2641ZM327.414 43.4556L324.096 183.58L321.596 183.52L324.914 43.3964L327.414 43.4556ZM327.005 44.3504L134.479 219.578L132.797 217.73L325.323 42.5016L327.005 44.3504ZM128.633 120.814L134.885 218.574L132.391 218.734L126.139 120.974L128.633 120.814ZM323.074 184.778L133.866 219.883L133.41 217.425L322.618 182.32L323.074 184.778ZM134.486 219.572L4.67993 339.415L2.98407 337.579L132.79 217.736L134.486 219.572ZM134.845 218.978L67.6262 469.278L65.2118 468.63L132.431 218.33L134.845 218.978ZM240.521 369.406L67.0462 470.035L65.7918 467.873L239.267 367.244L240.521 369.406ZM134.657 217.93L240.913 367.6L238.875 369.048L132.619 219.378L134.657 217.93ZM323.986 184.061L241.034 368.837L238.754 367.813L321.706 183.037L323.986 184.061ZM322.495 182.349L527.651 122.285L528.353 124.685L323.197 184.749L322.495 182.349ZM456.315 311.333L321.988 184.458L323.704 182.64L458.031 309.515L456.315 311.333ZM529.171 123.928L458.342 310.867L456.004 309.981L526.833 123.042L529.171 123.928ZM239.572 367.117L456.851 309.216L457.495 311.632L240.216 369.533L239.572 367.117ZM679.042 302.323L457.226 311.673L457.12 309.175L678.936 299.825L679.042 302.323ZM528.954 122.675L679.941 300.264L678.037 301.884L527.05 124.295L528.954 122.675ZM734.98 153.803L680.161 301.509L677.817 300.639L732.636 152.933L734.98 153.803ZM679.306 299.865L863.677 348.154L863.043 350.572L678.672 302.283L679.306 299.865ZM680.061 301.717L582.452 464.552L580.308 463.266L677.917 300.431L680.061 301.717ZM753.412 527.085L580.957 465.085L581.803 462.733L754.258 524.733L753.412 527.085ZM680.175 300.679L755.021 525.514L752.649 526.304L677.803 301.469L680.175 300.679ZM864.422 350.022L754.897 526.568L752.773 525.25L862.298 348.704L864.422 350.022ZM567.359 658.734L753.104 524.894L754.566 526.922L568.821 660.762L567.359 658.734ZM879.961 585.943L753.308 527.042L754.362 524.776L881.015 583.677L879.961 585.943ZM938.958 463.865L881.618 585.344L879.358 584.276L936.698 462.797L938.958 463.865ZM839.309 756.449L879.27 584.527L881.706 585.093L841.745 757.015L839.309 756.449ZM755.08 526.023L734.374 751.923L731.884 751.695L752.59 525.795L755.08 526.023ZM840.47 757.981L733.072 753.058L733.186 750.56L840.584 755.483L840.47 757.981ZM732.192 750.982L879.551 583.983L881.425 585.637L734.066 752.636L732.192 750.982ZM458.372 310.776L395.827 523.854L393.429 523.15L455.974 310.072L458.372 310.776ZM581.76 465.101L395.008 524.693L394.248 522.311L581 462.719L581.76 465.101ZM458.145 309.638L582.352 463.123L580.408 464.695L456.201 311.21L458.145 309.638ZM566.843 659.663L580.133 463.825L582.627 463.995L569.337 659.833L566.843 659.663ZM395.4 522.519L568.862 658.765L567.318 660.731L393.856 524.485L395.4 522.519ZM213.18 571.057L394.303 522.295L394.953 524.709L213.83 573.471L213.18 571.057ZM240.779 367.442L395.513 522.619L393.743 524.385L239.009 369.208L240.779 367.442ZM241.134 368.485L214.745 572.424L212.265 572.104L238.654 368.165L241.134 368.485ZM348.186 731.367L212.556 573.077L214.454 571.451L350.084 729.741L348.186 731.367ZM136.946 717.29L212.396 571.689L214.616 572.839L139.166 718.44L136.946 717.29ZM67.1385 467.931L214.223 571.241L212.787 573.287L65.7015 469.977L67.1385 467.931ZM732.52 752.901L567.481 660.84L568.699 658.656L733.738 750.717L732.52 752.901ZM348.75 729.365L567.705 658.559L568.475 660.937L349.52 731.743L348.75 729.365ZM522.846 830.009L566.88 659.436L569.3 660.06L525.266 830.633L522.846 830.009ZM523.617 829.151L732.69 750.639L733.568 752.979L524.495 831.491L523.617 829.151ZM332.943 888.874L523.682 829.128L524.43 831.514L333.691 891.26L332.943 888.874ZM143.83 825.03L333.715 888.882L332.919 891.252L143.034 827.4L143.83 825.03ZM599.99 916.152L333.201 891.312L333.433 888.822L600.222 913.662L599.99 916.152ZM524.986 829.485L601.036 914.071L599.176 915.743L523.126 831.157L524.986 829.485ZM523.437 831.407L348.516 731.64L349.754 729.468L524.675 829.235L523.437 831.407ZM734.098 752.599L601.075 915.697L599.137 914.117L732.16 751.019L734.098 752.599ZM395.849 523.77L350.356 730.822L347.914 730.286L393.407 523.234L395.849 523.77ZM332.073 889.944L347.891 730.431L350.379 730.677L334.561 890.19L332.073 889.944ZM334.193 889.175L368.213 922.583L366.461 924.367L332.441 890.959L334.193 889.175ZM4.95901 337.956L67.546 468.413L65.292 469.495L2.70499 339.038L4.95901 337.956ZM67.6212 468.608L139.257 717.519L136.855 718.211L65.2188 469.3L67.6212 468.608ZM142.184 826.277L136.808 717.927L139.304 717.803L144.68 826.153L142.184 826.277ZM0.814116 598.424L138.87 716.916L137.242 718.814L-0.814116 600.322L0.814116 598.424ZM138.883 716.927L334.144 889.13L332.49 891.005L137.229 718.802L138.883 716.927ZM349.06 731.802L137.98 719.113L138.13 716.617L349.21 729.306L349.06 731.802ZM879.241 584.901L862.113 349.454L864.607 349.272L881.735 584.719L879.241 584.901ZM837.664 170.536L864.596 349.177L862.124 349.549L835.192 170.908L837.664 170.536ZM734.851 152.678L864.403 348.674L862.317 350.052L732.765 154.056L734.851 152.678ZM67.5339 469.521L1.11387 599.939L-1.11387 598.805L65.3061 468.387L67.5339 469.521Z"></path>
            <g opacity="1" transform="translate(55.68798828125 31.8070068359375)">
                <path id="路径 2" fill-rule="evenodd" style="fill:#3c3c43" opacity="1"
                    d="M270.477 0C264.057 0 258.857 5.2 258.857 11.62C258.857 18.04 264.057 23.24 270.477 23.24C276.897 23.24 282.097 18.04 282.097 11.62C282.097 5.2 276.897 0 270.477 0Z"></path>
                <path id="路径 3" fill-rule="evenodd" style="fill:#3c3c43" opacity="1"
                    d="M267.16 141.534C261.52 141.534 256.95 146.104 256.95 151.744C256.95 157.384 261.52 161.954 267.16 161.954C272.8 161.954 277.37 157.384 277.37 151.744C277.37 146.104 272.8 141.534 267.16 141.534Z"></path>
                <path id="路径 4" fill-rule="evenodd" style="fill:#3c3c43" opacity="1"
                    d="M401.482 269.413C396.402 269.413 392.282 273.533 392.282 278.613C392.282 283.703 396.402 287.823 401.482 287.823C406.572 287.823 410.692 283.703 410.692 278.613C410.692 273.533 406.572 269.413 401.482 269.413Z"></path>
                <path id="路径 5" fill-rule="evenodd" style="fill:#3c3c43" opacity="1"
                    d="M623.302 259.637C617.982 259.637 613.672 263.947 613.672 269.267C613.672 274.587 617.982 278.897 623.302 278.897C628.622 278.897 632.932 274.587 632.932 269.267C632.932 263.947 628.622 259.637 623.302 259.637Z"></path>
                <path id="路径 6" fill-rule="evenodd" style="fill:#3c3c43" opacity="1"
                    d="M678.123 110.613C672.073 110.613 667.173 115.513 667.173 121.563C667.173 127.603 672.073 132.503 678.123 132.503C684.163 132.503 689.063 127.603 689.063 121.563C689.063 115.513 684.163 110.613 678.123 110.613Z"></path>
                <path id="路径 7" fill-rule="evenodd" style="fill:#3c3c43" opacity="1"
                    d="M472.312 81.416C466.642 81.416 462.052 86.006 462.052 91.676C462.052 97.346 466.642 101.936 472.312 101.936C477.982 101.936 482.572 97.346 482.572 91.676C482.572 86.006 477.982 81.416 472.312 81.416Z"></path>
                <path id="路径 8" fill-rule="evenodd" style="fill:#3c3c43" opacity="1"
                    d="M807.677 306.481C801.557 306.481 796.597 311.441 796.597 317.561C796.597 323.671 801.557 328.631 807.677 328.631C813.787 328.631 818.747 323.671 818.747 317.561C818.747 311.441 813.787 306.481 807.677 306.481Z"></path>
                <path id="路径 9" fill-rule="evenodd" style="fill:#3c3c43" opacity="1"
                    d="M698.15 484.225C692.69 484.225 688.27 488.645 688.27 494.105C688.27 499.555 692.69 503.975 698.15 503.975C703.6 503.975 708.02 499.555 708.02 494.105C708.02 488.645 703.6 484.225 698.15 484.225Z"></path>
                <path id="路径 10" fill-rule="evenodd" style="fill:#3c3c43" opacity="1"
                    d="M824.798 541.411C818.398 541.411 813.208 546.601 813.208 553.001C813.208 559.401 818.398 564.591 824.798 564.591C831.198 564.591 836.388 559.401 836.388 553.001C836.388 546.601 831.198 541.411 824.798 541.411Z"></path>
                <path id="路径 11" fill-rule="evenodd" style="fill:#3c3c43" opacity="1"
                    d="M677.444 709.075C671.404 709.075 666.514 713.965 666.514 720.005C666.514 726.035 671.404 730.925 677.444 730.925C683.474 730.925 688.364 726.035 688.364 720.005C688.364 713.965 683.474 709.075 677.444 709.075Z"></path>
                <path id="路径 12" fill-rule="evenodd" style="fill:#3c3c43" opacity="1"
                    d="M512.4 618.479C507.18 618.479 502.94 622.719 502.94 627.939C502.94 633.169 507.18 637.399 512.4 637.399C517.63 637.399 521.86 633.169 521.86 627.939C521.86 622.719 517.63 618.479 512.4 618.479Z"></path>
                <path id="路径 13" fill-rule="evenodd" style="fill:#3c3c43" opacity="1"
                    d="M468.367 788.072C462.597 788.072 457.927 792.742 457.927 798.512C457.927 804.282 462.597 808.952 468.367 808.952C474.137 808.952 478.807 804.282 478.807 798.512C478.807 792.742 474.137 788.072 468.367 788.072Z"></path>
                <path id="路径 14" fill-rule="evenodd" style="fill:#3c3c43" opacity="1"
                    d="M277.634 846.825C271.314 846.825 266.194 851.945 266.194 858.265C266.194 864.575 271.314 869.695 277.634 869.695C283.944 869.695 289.064 864.575 289.064 858.265C289.064 851.945 283.944 846.825 277.634 846.825Z"></path>
                <path id="路径 15" fill-rule="evenodd" style="fill:#3c3c43" opacity="1"
                    d="M293.45 688.83C287.97 688.83 283.53 693.27 283.53 698.75C283.53 704.22 287.97 708.66 293.45 708.66C298.92 708.66 303.36 704.22 303.36 698.75C303.36 693.27 298.92 688.83 293.45 688.83Z"></path>
                <path id="路径 16" fill-rule="evenodd" style="fill:#3c3c43" opacity="1"
                    d="M82.37 675.28C76.42 675.28 71.59 680.11 71.59 686.06C71.59 692.01 76.42 696.84 82.37 696.84C88.32 696.84 93.15 692.01 93.15 686.06C93.15 680.11 88.32 675.28 82.37 675.28Z"></path>
                <path id="路径 17" fill-rule="evenodd" style="fill:#3c3c43" opacity="1"
                    d="M157.814 530.943C152.564 530.943 148.304 535.203 148.304 540.453C148.304 545.713 152.564 549.973 157.814 549.973C163.074 549.973 167.334 545.713 167.334 540.453C167.334 535.203 163.074 530.943 157.814 530.943Z"></path>
                <path id="路径 18" fill-rule="evenodd" style="fill:#3c3c43" opacity="1"
                    d="M10.73 426.416C4.8 426.416 0 431.216 0 437.146C0 443.076 4.8 447.876 10.73 447.876C16.66 447.876 21.46 443.076 21.46 437.146C21.46 431.216 16.66 426.416 10.73 426.416Z"></path>
                <path id="路径 19" fill-rule="evenodd" style="fill:#3c3c43" opacity="1"
                    d="M338.937 482.672C333.957 482.672 329.917 486.712 329.917 491.692C329.917 496.682 333.957 500.722 338.937 500.722C343.927 500.722 347.967 496.682 347.967 491.692C347.967 486.712 343.927 482.672 338.937 482.672Z"></path>
                <path id="路径 20" fill-rule="evenodd" style="fill:#3c3c43" opacity="1"
                    d="M525.687 422.978C520.657 422.978 516.567 427.068 516.567 432.098C516.567 437.138 520.657 441.228 525.687 441.228C530.727 441.228 534.817 437.138 534.817 432.098C534.817 427.068 530.727 422.978 525.687 422.978Z"></path>
                <path id="路径 21" fill-rule="evenodd" style="fill:#3c3c43" opacity="1"
                    d="M184.211 326.972C178.931 326.972 174.661 331.242 174.661 336.522C174.661 341.792 178.931 346.062 184.211 346.062C189.481 346.062 193.751 341.792 193.751 336.522C193.751 331.242 189.481 326.972 184.211 326.972Z"></path>
                <path id="路径 22" fill-rule="evenodd" style="fill:#3c3c43" opacity="1"
                    d="M77.95 175.957C71.94 175.957 67.06 180.837 67.06 186.847C67.06 192.857 71.94 197.737 77.95 197.737C83.96 197.737 88.84 192.857 88.84 186.847C88.84 180.837 83.96 175.957 77.95 175.957Z"></path>
            </g>
        </g>
        <path id="路径 23" style="fill:#3c3c43; opacity:1;"
            d="M139.552 39.9639L388.077 -80.9301L389.171 -78.6819L140.646 42.2121L139.552 39.9639ZM388.71 -81.053L605.986 -66.047L605.814 -63.553L388.538 -78.559L388.71 -81.053ZM607.026 -65.3423L635.916 -5.21233L633.662 -4.12966L604.772 -64.2597L607.026 -65.3423ZM635.299 -5.81163L849.649 89.7744L848.631 92.0576L634.281 -3.52837L635.299 -5.81163ZM140.368 39.8674L296.84 74.4084L296.302 76.8496L139.83 42.3086L140.368 39.8674ZM297.403 76.5627L45.5263 301.323L43.8618 299.457L295.739 74.6973L297.403 76.5627ZM17.58 257.991L45.73 299.692L43.658 301.09L15.508 259.389L17.58 257.991ZM141.186 41.7052L17.631 259.307L15.457 258.073L139.012 40.4708L141.186 41.7052ZM297.812 75.7834L258.809 391.166L256.327 390.86L295.33 75.4766L297.812 75.7834ZM635.712 -5.51359L846.328 224.783L844.484 226.471L633.868 -3.82641L635.712 -5.51359ZM155.087 747.078L11.6555 520.234L13.7685 518.898L157.201 745.742L155.087 747.078ZM154.408 742.687L139.735 635.617L142.211 635.277L156.884 742.347L154.408 742.687ZM850.39 90.9506L846.656 225.661L844.156 225.591L847.891 90.8814L850.39 90.9506ZM297.301 74.6154L587.783 283.647L586.323 285.677L295.841 76.6446L297.301 74.6154ZM845.684 226.846L587.331 285.881L586.775 283.443L845.128 224.408L845.684 226.846ZM850.321 90.5067L951.721 383.116L949.359 383.934L847.959 91.3253L850.321 90.5067ZM815.879 540.983L844.161 225.515L846.651 225.739L818.369 541.207L815.879 540.983ZM257.078 392.163L44.2044 301.541L45.1836 299.241L258.058 389.863L257.078 392.163ZM587.437 285.852L257.952 392.203L257.184 389.823L586.669 283.472L587.437 285.852ZM949.341 383.755L843.011 224.84L845.089 223.45L951.419 382.365L949.341 383.755ZM818.332 540.774L854.447 676.604L852.031 677.246L815.916 541.416L818.332 540.774ZM474.822 652.505L816.732 539.908L817.514 542.282L475.604 654.879L474.822 652.505ZM666.069 788.948L613.654 836.03L611.984 834.17L664.399 787.088L666.069 788.948ZM664.598 786.942L852.603 675.85L853.875 678.002L665.87 789.094L664.598 786.942ZM853.927 677.97L613.505 836.144L612.131 834.056L852.553 675.882L853.927 677.97ZM380.004 842.421L612.773 833.852L612.865 836.35L380.096 844.919L380.004 842.421ZM379.552 844.817L155.646 747.557L156.642 745.264L380.548 842.524L379.552 844.817ZM475.935 652.671L665.955 786.997L664.511 789.039L474.491 654.713L475.935 652.671ZM476.331 654.252L381.168 844.229L378.932 843.109L474.095 653.132L476.331 654.252ZM665.473 789.245L380.288 844.896L379.81 842.442L664.995 786.791L665.473 789.245ZM258.531 390.215L476.176 652.895L474.25 654.49L256.605 391.811L258.531 390.215ZM258.697 391.551L141.119 638.391L138.861 637.316L256.44 390.475L258.697 391.551ZM45.8954 300.046L142.174 635.102L139.772 635.792L43.4926 300.736L45.8954 300.046ZM17.7939 258.708L13.9619 519.585L11.4621 519.549L15.2941 258.672L17.7939 258.708ZM13.55 518.64L141.81 634.52L140.134 636.375L11.874 520.495L13.55 518.64ZM141.794 634.504L380.87 842.727L379.228 844.613L140.152 636.39L141.794 634.504ZM475.145 654.94L140.905 636.695L141.041 634.199L475.281 652.444L475.145 654.94ZM588.249 285.025L476.409 654.055L474.017 653.329L585.857 284.299L588.249 285.025ZM587.983 283.827L818.053 540.26L816.193 541.93L586.123 285.497L587.983 283.827ZM141.272 41.5196L45.8671 300.822L43.5209 299.958L138.926 40.6564L141.272 41.5196ZM636.023 -4.46651L588.286 284.865L585.82 284.458L633.557 -4.87348L636.023 -4.46651ZM852.054 676.532L949.354 383.132L951.726 383.918L854.427 677.319L852.054 676.532ZM816.17 540.287L949.586 382.717L951.494 384.333L818.078 541.903L816.17 540.287ZM818.189 541.75L666.299 788.673L664.169 787.363L816.059 540.44L818.189 541.75ZM45.9309 300.571L13.9489 519.747L11.4751 519.386L43.4571 300.211L45.9309 300.571ZM388.989 -81.0015L635.155 -5.86555L634.425 -3.47445L388.259 -78.6105L388.989 -81.0015ZM382.788 -67.477L305.406 63.183L303.254 61.909L380.636 -68.751L382.788 -67.477ZM635.079 -3.4538L296.86 76.8462L296.282 74.4138L634.501 -5.88619L635.079 -3.4538ZM606.573 -65.8538L849.814 89.8633L848.466 91.9688L605.225 -63.7482L606.573 -65.8538Z"></path>
        <g opacity="1" transform="translate(0.207000732421875 -93.46200561523438)">
            <path id="路径 24" fill-rule="evenodd" style="fill:#3c3c43" opacity="1"
                d="M388.421 0C380.871 0 374.761 6.11 374.761 13.66C374.761 21.2 380.871 27.31 388.421 27.31C395.961 27.31 402.071 21.2 402.071 13.66C402.071 6.11 395.961 0 388.421 0Z"></path>
            <path id="路径 25" fill-rule="evenodd" style="fill:#3c3c43" opacity="1"
                d="M296.362 153.739C287.882 153.739 281.012 160.609 281.012 169.089C281.012 177.569 287.882 184.439 296.362 184.439C304.842 184.439 311.712 177.569 311.712 169.089C311.712 160.609 304.842 153.739 296.362 153.739Z"></path>
            <path id="路径 26" fill-rule="evenodd" style="fill:#3c3c43" opacity="1"
                d="M586.844 361.913C577.894 361.913 570.634 369.173 570.634 378.123C570.634 387.073 577.894 394.333 586.844 394.333C595.794 394.333 603.054 387.073 603.054 378.123C603.054 369.173 595.794 361.913 586.844 361.913Z"></path>
            <path id="路径 27" fill-rule="evenodd" style="fill:#3c3c43" opacity="1"
                d="M634.582 74.291C626.572 74.291 620.082 80.781 620.082 88.791C620.082 96.801 626.572 103.291 634.582 103.291C642.592 103.291 649.082 96.801 649.082 88.791C649.082 80.781 642.592 74.291 634.582 74.291Z"></path>
            <path id="路径 28" fill-rule="evenodd" style="fill:#3c3c43" opacity="1"
                d="M605.694 16.433C598.934 16.433 593.464 21.903 593.464 28.663C593.464 35.413 598.934 40.883 605.694 40.883C612.444 40.883 617.914 35.413 617.914 28.663C617.914 21.903 612.444 16.433 605.694 16.433Z"></path>
            <path id="路径 29" fill-rule="evenodd" style="fill:#3c3c43" opacity="1"
                d="M848.937 171.642C841.897 171.642 836.197 177.342 836.197 184.382C836.197 191.412 841.897 197.112 848.937 197.112C855.967 197.112 861.667 191.412 861.667 184.382C861.667 177.342 855.967 171.642 848.937 171.642Z"></path>
            <path id="路径 30" fill-rule="evenodd" style="fill:#3c3c43" opacity="1"
                d="M845.195 304.324C837.045 304.324 830.435 310.934 830.435 319.084C830.435 327.244 837.045 333.854 845.195 333.854C853.355 333.854 859.965 327.244 859.965 319.084C859.965 310.934 853.355 304.324 845.195 304.324Z"></path>
            <path id="路径 31" fill-rule="evenodd" style="fill:#3c3c43" opacity="1"
                d="M950.33 463.734C943.01 463.734 937.08 469.664 937.08 476.984C937.08 484.304 943.01 490.244 950.33 490.244C957.65 490.244 963.59 484.304 963.59 476.984C963.59 469.664 957.65 463.734 950.33 463.734Z"></path>
            <path id="路径 32" fill-rule="evenodd" style="fill:#3c3c43" opacity="1"
                d="M816.914 619.314C808.494 619.314 801.674 626.134 801.674 634.554C801.674 642.974 808.494 649.804 816.914 649.804C825.334 649.804 832.164 642.974 832.164 634.554C832.164 626.134 825.334 619.314 816.914 619.314Z"></path>
            <path id="路径 33" fill-rule="evenodd" style="fill:#3c3c43" opacity="1"
                d="M853.031 757.437C845.881 757.437 840.081 763.237 840.081 770.387C840.081 777.537 845.881 783.337 853.031 783.337C860.181 783.337 865.981 777.537 865.981 770.387C865.981 763.237 860.181 757.437 853.031 757.437Z"></path>
            <path id="路径 34" fill-rule="evenodd" style="fill:#3c3c43" opacity="1"
                d="M665.026 867.049C657.056 867.049 650.596 873.509 650.596 881.479C650.596 889.449 657.056 895.909 665.026 895.909C672.996 895.909 679.456 889.449 679.456 881.479C679.456 873.509 672.996 867.049 665.026 867.049Z"></path>
            <path id="路径 35" fill-rule="evenodd" style="fill:#3c3c43" opacity="1"
                d="M612.609 916.451C605.919 916.451 600.499 921.871 600.499 928.561C600.499 935.251 605.919 940.671 612.609 940.671C619.299 940.671 624.719 935.251 624.719 928.561C624.719 921.871 619.299 916.451 612.609 916.451Z"></path>
            <path id="路径 36" fill-rule="evenodd" style="fill:#3c3c43" opacity="1"
                d="M475.005 731.482C466.355 731.482 459.335 738.502 459.335 747.152C459.335 755.812 466.355 762.822 475.005 762.822C483.665 762.822 490.675 755.812 490.675 747.152C490.675 738.502 483.665 731.482 475.005 731.482Z"></path>
            <path id="路径 37" fill-rule="evenodd" style="fill:#3c3c43" opacity="1"
                d="M379.84 923.339C372.22 923.339 366.05 929.509 366.05 937.129C366.05 944.749 372.22 950.919 379.84 950.919C387.46 950.919 393.63 944.749 393.63 937.129C393.63 929.509 387.46 923.339 379.84 923.339Z"></path>
            <path id="路径 38" fill-rule="evenodd" style="fill:#3c3c43" opacity="1"
                d="M155.933 827.387C149.043 827.387 143.453 832.977 143.453 839.867C143.453 846.767 149.043 852.357 155.933 852.357C162.833 852.357 168.423 846.767 168.423 839.867C168.423 832.977 162.833 827.387 155.933 827.387Z"></path>
            <path id="路径 39" fill-rule="evenodd" style="fill:#3c3c43" opacity="1"
                d="M12.51 600.523C5.6 600.523 0 606.123 0 613.033C0 619.933 5.6 625.533 12.51 625.533C19.41 625.533 25.01 619.933 25.01 613.033C25.01 606.123 19.41 600.523 12.51 600.523Z"></path>
            <path id="路径 40" fill-rule="evenodd" style="fill:#3c3c43" opacity="1"
                d="M257.358 468.512C248.548 468.512 241.398 475.662 241.398 484.472C241.398 493.292 248.548 500.442 257.358 500.442C266.178 500.442 273.328 493.292 273.328 484.472C273.328 475.662 266.178 468.512 257.358 468.512Z"></path>
            <path id="路径 41" fill-rule="evenodd" style="fill:#3c3c43" opacity="1"
                d="M44.483 379.35C36.473 379.35 29.983 385.84 29.983 393.85C29.983 401.86 36.473 408.36 44.483 408.36C52.493 408.36 58.993 401.86 58.993 393.85C58.993 385.84 52.493 379.35 44.483 379.35Z"></path>
            <path id="路径 42" fill-rule="evenodd" style="fill:#3c3c43" opacity="1"
                d="M16.337 339.982C9.61699 339.982 4.16699 345.432 4.16699 352.152C4.16699 358.872 9.61699 364.322 16.337 364.322C23.057 364.322 28.507 358.872 28.507 352.152C28.507 345.432 23.057 339.982 16.337 339.982Z"></path>
            <path id="路径 43" fill-rule="evenodd" style="fill:#3c3c43" opacity="1"
                d="M139.889 121.617C132.749 121.617 126.959 127.407 126.959 134.547C126.959 141.687 132.749 147.477 139.889 147.477C147.029 147.477 152.819 141.687 152.819 134.547C152.819 127.407 147.029 121.617 139.889 121.617Z"></path>
            <path id="路径 44" fill-rule="evenodd" style="fill:#3c3c43" opacity="1"
                d="M140.766 714.41C132.756 714.41 126.266 720.9 126.266 728.91C126.266 736.92 132.756 743.41 140.766 743.41C148.776 743.41 155.266 736.92 155.266 728.91C155.266 720.9 148.776 714.41 140.766 714.41Z"></path>
        </g>
    </g>
    <defs>
        <filter id="filter_1" x="-2.792" y="-2.792" width="943.4119999999999" height="929.059"
            filterUnits="userSpaceOnUse" color-interpolation-filters="sRGB">
            <feFlood flood-opacity="0" result="BackgroundImageFix" />
            <feBlend mode="normal" in="SourceGraphic" in2="BackgroundImageFix" result="shape" />
            <feGaussianBlur stdDeviation="1.396" result="effect1_foregroundBlur" />
        </filter>
    </defs>
</svg>